<svg width="138" height="60" viewBox="0 0 138 60" fill="none" xmlns="http://www.w3.org/2000/svg">
<path d="M42 19.84C41.52 19.7867 41.1867 19.76 41 19.76C40.3333 19.76 39.8267 19.8933 39.48 20.16C39.1333 20.4 38.8933 20.8267 38.76 21.44H42V28.84H38.68V44H29.8V28.84H27.4V21.44H29.8C29.8533 18.5067 30.7733 16.24 32.56 14.64C34.3733 13.0133 36.9067 12.2 40.16 12.2C40.5333 12.2 41.1467 12.2267 42 12.28V19.84ZM48.8706 19.64C47.324 19.64 46.084 19.2267 45.1506 18.4C44.2173 17.5733 43.7506 16.5333 43.7506 15.28C43.7506 14 44.2173 12.9467 45.1506 12.12C46.084 11.2667 47.324 10.84 48.8706 10.84C50.3906 10.84 51.6173 11.2667 52.5506 12.12C53.484 12.9467 53.9506 14 53.9506 15.28C53.9506 16.5333 53.484 17.5733 52.5506 18.4C51.6173 19.2267 50.3906 19.64 48.8706 19.64ZM53.2706 21.44V44H44.3906V21.44H53.2706ZM73.0813 21.28C75.6679 21.28 77.6813 22.1467 79.1213 23.88C80.5879 25.6133 81.3213 27.96 81.3213 30.92V44H72.4813V32.04C72.4813 30.9733 72.1879 30.1333 71.6013 29.52C71.0413 28.88 70.2813 28.56 69.3213 28.56C68.3346 28.56 67.5613 28.88 67.0013 29.52C66.4413 30.1333 66.1613 30.9733 66.1613 32.04V44H57.2813V21.44H66.1613V24.88C66.8546 23.8133 67.7746 22.9467 68.9213 22.28C70.0946 21.6133 71.4813 21.28 73.0813 21.28ZM83.9719 32.72C83.9719 30.3467 84.3719 28.2933 85.1719 26.56C85.9985 24.8 87.1185 23.4667 88.5319 22.56C89.9452 21.6267 91.5319 21.16 93.2919 21.16C94.7585 21.16 96.0119 21.4667 97.0519 22.08C98.1185 22.6667 98.9319 23.48 99.4919 24.52V14.4H108.372V44H99.4919V40.92C98.9319 41.96 98.1185 42.7867 97.0519 43.4C96.0119 43.9867 94.7585 44.28 93.2919 44.28C91.5319 44.28 89.9452 43.8267 88.5319 42.92C87.1185 41.9867 85.9985 40.6533 85.1719 38.92C84.3719 37.16 83.9719 35.0933 83.9719 32.72ZM99.5319 32.72C99.5319 31.52 99.2252 30.5867 98.6119 29.92C97.9985 29.2533 97.2119 28.92 96.2519 28.92C95.2919 28.92 94.5052 29.2533 93.8919 29.92C93.2785 30.5867 92.9719 31.52 92.9719 32.72C92.9719 33.92 93.2785 34.8533 93.8919 35.52C94.5052 36.1867 95.2919 36.52 96.2519 36.52C97.2119 36.52 97.9985 36.1867 98.6119 35.52C99.2252 34.8533 99.5319 33.92 99.5319 32.72Z" fill="black"/>
<path d="M118.514 28.302C117.509 28.302 116.703 28.0333 116.096 27.496C115.489 26.9587 115.186 26.2827 115.186 25.468C115.186 24.636 115.489 23.9513 116.096 23.414C116.703 22.8593 117.509 22.582 118.514 22.582C119.502 22.582 120.299 22.8593 120.906 23.414C121.513 23.9513 121.816 24.636 121.816 25.468C121.816 26.2827 121.513 26.9587 120.906 27.496C120.299 28.0333 119.502 28.302 118.514 28.302ZM121.478 33.398L118.8 41.12H115.16L116.382 33.398H121.478ZM123.11 43.954V43.434C124.791 41.666 126.117 39.5427 127.088 37.064C128.059 34.568 128.544 31.994 128.544 29.342C128.544 26.7073 128.059 24.1507 127.088 21.672C126.117 19.176 124.791 17.044 123.11 15.276V14.73H128.674C130.338 16.3073 131.647 18.3873 132.6 20.97C133.571 23.5527 134.056 26.3433 134.056 29.342C134.056 32.3407 133.571 35.1313 132.6 37.714C131.647 40.2967 130.338 42.3767 128.674 43.954H123.11Z" fill="black"/>
</svg>
